<?xml version="1.0" encoding="UTF-8"?>
<svg width="700pt" height="700pt" version="1.1" viewBox="0 0 700 700" xmlns="http://www.w3.org/2000/svg" xmlns:xlink="http://www.w3.org/1999/xlink">
 <defs>
  <symbol id="v" overflow="visible">
   <path d="m2.6875-0.15625c-0.13672 0.074219-0.28125 0.125-0.4375 0.15625-0.14844 0.039062-0.30469 0.0625-0.46875 0.0625-0.48047 0-0.86719-0.13281-1.1562-0.40625-0.28125-0.28125-0.42188-0.64844-0.42188-1.1094 0-0.46875 0.14062-0.83594 0.42188-1.1094 0.28906-0.28125 0.67578-0.42188 1.1562-0.42188 0.16406 0 0.32031 0.023437 0.46875 0.0625 0.15625 0.03125 0.30078 0.085937 0.4375 0.15625v0.60938c-0.13672-0.09375-0.27344-0.16016-0.40625-0.20312-0.13672-0.050781-0.28125-0.078125-0.4375-0.078125-0.27344 0-0.48438 0.089844-0.64062 0.26562-0.14844 0.16797-0.21875 0.40625-0.21875 0.71875 0 0.29297 0.070313 0.52734 0.21875 0.70312 0.15625 0.17969 0.36719 0.26562 0.64062 0.26562 0.15625 0 0.30078-0.019531 0.4375-0.0625 0.13281-0.050781 0.26953-0.125 0.40625-0.21875z"/>
  </symbol>
  <symbol id="d" overflow="visible">
   <path d="m1.9688-1.5938c-0.0625-0.03125-0.125-0.050781-0.1875-0.0625-0.0625-0.019531-0.12109-0.03125-0.17188-0.03125-0.1875 0-0.32812 0.0625-0.42188 0.1875-0.09375 0.11719-0.14062 0.27734-0.14062 0.48438v1.0156h-0.70312v-2.2031h0.70312v0.375c0.082031-0.14453 0.17969-0.25 0.29688-0.3125 0.125-0.070313 0.26562-0.10938 0.42188-0.10938h0.078125c0.03125 0 0.070312 0.007812 0.125 0.015625z"/>
  </symbol>
  <symbol id="c" overflow="visible">
   <path d="m2.5312-1.1094v0.20312h-1.6406c0.007813 0.16797 0.066406 0.29297 0.17188 0.375 0.10156 0.085938 0.25 0.125 0.4375 0.125 0.14453 0 0.29688-0.019531 0.45312-0.0625 0.15625-0.050781 0.3125-0.11719 0.46875-0.20312v0.53125c-0.16797 0.0625-0.33594 0.10938-0.5 0.14062-0.16797 0.039062-0.33594 0.0625-0.5 0.0625-0.39844 0-0.70312-0.097656-0.92188-0.29688-0.21875-0.20703-0.32812-0.49219-0.32812-0.85938 0-0.36328 0.10938-0.64453 0.32812-0.84375 0.21875-0.20703 0.51562-0.3125 0.89062-0.3125 0.34375 0 0.61719 0.10547 0.82812 0.3125 0.20703 0.21094 0.3125 0.48438 0.3125 0.82812zm-0.71875-0.23438c0-0.125-0.042969-0.22656-0.125-0.3125-0.074219-0.082031-0.17188-0.125-0.29688-0.125-0.13672 0-0.25 0.042969-0.34375 0.125-0.085937 0.074219-0.13672 0.17969-0.15625 0.3125z"/>
  </symbol>
  <symbol id="b" overflow="visible">
   <path d="m1.3281-0.98438c-0.14844 0-0.26172 0.027344-0.34375 0.078125-0.074219 0.042969-0.10938 0.11719-0.10938 0.21875 0 0.085938 0.03125 0.15234 0.09375 0.20312 0.0625 0.054687 0.14453 0.078125 0.25 0.078125 0.13281 0 0.24219-0.046875 0.32812-0.14062 0.09375-0.09375 0.14062-0.21094 0.14062-0.35938v-0.078125zm1.0625-0.26562v1.25h-0.70312v-0.32812c-0.09375 0.13672-0.20312 0.23438-0.32812 0.29688-0.11719 0.0625-0.25781 0.09375-0.42188 0.09375-0.23047 0-0.41797-0.066406-0.5625-0.20312-0.13672-0.13281-0.20312-0.30469-0.20312-0.51562 0-0.25781 0.085937-0.44531 0.26562-0.5625 0.17578-0.125 0.45312-0.1875 0.82812-0.1875h0.42188v-0.046875c0-0.11328-0.046875-0.19531-0.14062-0.25-0.085937-0.050781-0.21875-0.078125-0.40625-0.078125-0.14844 0-0.28906 0.015625-0.42188 0.046875-0.125 0.03125-0.24609 0.074219-0.35938 0.125v-0.53125c0.15625-0.03125 0.30469-0.054687 0.45312-0.078125 0.15625-0.019531 0.30469-0.03125 0.45312-0.03125 0.39453 0 0.67969 0.078125 0.85938 0.23438 0.17578 0.15625 0.26562 0.41406 0.26562 0.76562z"/>
  </symbol>
  <symbol id="a" overflow="visible">
   <path d="m1.1094-2.8125v0.60938h0.71875v0.51562h-0.71875v0.92188c0 0.10547 0.015625 0.17969 0.046875 0.21875 0.039062 0.03125 0.125 0.046875 0.25 0.046875h0.35938v0.5h-0.59375c-0.28125 0-0.48047-0.054688-0.59375-0.17188-0.11719-0.11328-0.17188-0.3125-0.17188-0.59375v-0.92188h-0.35938v-0.51562h0.35938v-0.60938z"/>
  </symbol>
  <symbol id="l" overflow="visible">
   <path d="m1.8281-1.875v-1.1719h0.70312v3.0469h-0.70312v-0.3125c-0.09375 0.125-0.19922 0.21875-0.3125 0.28125-0.11719 0.0625-0.25 0.09375-0.40625 0.09375-0.27344 0-0.49609-0.10938-0.67188-0.32812-0.16797-0.21875-0.25-0.49219-0.25-0.82812 0-0.34375 0.082031-0.61719 0.25-0.82812 0.17578-0.21875 0.39844-0.32812 0.67188-0.32812 0.14453 0 0.27344 0.03125 0.39062 0.09375 0.125 0.0625 0.23438 0.15625 0.32812 0.28125zm-0.45312 1.4219c0.14453 0 0.25391-0.050781 0.32812-0.15625 0.082031-0.11328 0.125-0.27344 0.125-0.48438 0-0.20703-0.042969-0.36328-0.125-0.46875-0.074219-0.11328-0.18359-0.17188-0.32812-0.17188-0.15625 0-0.27734 0.058594-0.35938 0.17188-0.074219 0.10547-0.10938 0.26172-0.10938 0.46875 0 0.21094 0.035156 0.37109 0.10938 0.48438 0.082031 0.10547 0.20312 0.15625 0.35938 0.15625z"/>
  </symbol>
  <symbol id="g" overflow="visible">
   <path d="m1.5-0.45312c0.15625 0 0.26953-0.050781 0.34375-0.15625 0.082031-0.11328 0.125-0.27344 0.125-0.48438 0-0.20703-0.042969-0.36328-0.125-0.46875-0.074219-0.11328-0.1875-0.17188-0.34375-0.17188-0.14844 0-0.26172 0.058594-0.34375 0.17188-0.074219 0.10547-0.10938 0.26172-0.10938 0.46875 0 0.21094 0.035156 0.37109 0.10938 0.48438 0.082031 0.10547 0.19531 0.15625 0.34375 0.15625zm-0.45312-1.4219c0.09375-0.125 0.19531-0.21875 0.3125-0.28125 0.11328-0.0625 0.25-0.09375 0.40625-0.09375 0.26953 0 0.48828 0.10938 0.65625 0.32812 0.17578 0.21094 0.26562 0.48438 0.26562 0.82812 0 0.33594-0.089844 0.60938-0.26562 0.82812-0.16797 0.21875-0.38672 0.32812-0.65625 0.32812-0.15625 0-0.29297-0.03125-0.40625-0.09375-0.11719-0.0625-0.21875-0.15625-0.3125-0.28125v0.3125h-0.70312v-3.0469h0.70312z"/>
  </symbol>
  <symbol id="f" overflow="visible">
   <path d="m0.046875-2.2031h0.70312l0.59375 1.5 0.5-1.5h0.70312l-0.92188 2.4062c-0.09375 0.25-0.20312 0.42188-0.32812 0.51562s-0.28906 0.14062-0.48438 0.14062h-0.40625v-0.45312h0.21875c0.11328 0 0.19531-0.023438 0.25-0.0625 0.0625-0.03125 0.10938-0.10156 0.14062-0.20312l0.015625-0.0625z"/>
  </symbol>
  <symbol id="k" overflow="visible">
   <path d="m3-0.21875c-0.1875 0.09375-0.38672 0.16797-0.59375 0.21875-0.19922 0.039062-0.40625 0.0625-0.625 0.0625-0.48047 0-0.86719-0.13281-1.1562-0.40625-0.28125-0.28125-0.42188-0.64844-0.42188-1.1094 0-0.47656 0.14453-0.85156 0.4375-1.125 0.28906-0.26953 0.6875-0.40625 1.1875-0.40625 0.19531 0 0.38281 0.023437 0.5625 0.0625 0.17578 0.03125 0.34375 0.085937 0.5 0.15625v0.60938c-0.16797-0.09375-0.33594-0.16016-0.5-0.20312-0.15625-0.050781-0.3125-0.078125-0.46875-0.078125-0.30469 0-0.53906 0.089844-0.70312 0.26562-0.15625 0.16797-0.23438 0.40625-0.23438 0.71875 0 0.30469 0.078125 0.54297 0.23438 0.71875 0.15625 0.16797 0.37891 0.25 0.67188 0.25 0.070313 0 0.14062-0.003906 0.20312-0.015625 0.070312-0.007812 0.13281-0.023438 0.1875-0.046875v-0.57812h-0.45312v-0.5h1.1719z"/>
  </symbol>
  <symbol id="j" overflow="visible">
   <path d="m2.5469-1.3438v1.3438h-0.70312v-1.0156c0-0.19531-0.007812-0.33203-0.015625-0.40625-0.011719-0.070313-0.027344-0.125-0.046875-0.15625-0.03125-0.039063-0.074219-0.070313-0.125-0.09375-0.042969-0.03125-0.089844-0.046875-0.14062-0.046875-0.14844 0-0.26172 0.058594-0.34375 0.17188-0.085937 0.11719-0.125 0.27344-0.125 0.46875v1.0781h-0.70312v-3.0469h0.70312v1.1719c0.10156-0.125 0.21094-0.21875 0.32812-0.28125 0.125-0.0625 0.25391-0.09375 0.39062-0.09375 0.25781 0 0.45312 0.078125 0.57812 0.23438 0.13281 0.15625 0.20312 0.38281 0.20312 0.67188z"/>
  </symbol>
  <symbol id="u" overflow="visible">
   <path d="m0.34375-2.2031h0.70312v2.2031h-0.70312zm0-0.84375h0.70312v0.5625h-0.70312z"/>
  </symbol>
  <symbol id="t" overflow="visible">
   <path d="m2.0469-2.125v0.53125c-0.14844-0.0625-0.29297-0.10938-0.4375-0.14062-0.13672-0.03125-0.26562-0.046875-0.39062-0.046875-0.13672 0-0.23438 0.015625-0.29688 0.046875s-0.09375 0.085937-0.09375 0.15625c0 0.054687 0.019531 0.09375 0.0625 0.125 0.050781 0.03125 0.14453 0.058594 0.28125 0.078125l0.10938 0.015625c0.36328 0.042969 0.60938 0.11719 0.73438 0.21875 0.125 0.10547 0.1875 0.27344 0.1875 0.5 0 0.23047-0.089844 0.40625-0.26562 0.53125-0.16797 0.11328-0.42188 0.17188-0.76562 0.17188-0.14844 0-0.29688-0.015625-0.45312-0.046875-0.15625-0.019531-0.32031-0.050781-0.48438-0.09375v-0.53125c0.14453 0.0625 0.28906 0.11719 0.4375 0.15625 0.14453 0.03125 0.29688 0.046875 0.45312 0.046875 0.13281 0 0.23438-0.019531 0.29688-0.0625 0.070313-0.039062 0.10938-0.097656 0.10938-0.17188 0-0.0625-0.027344-0.10938-0.078125-0.14062-0.042969-0.03125-0.13672-0.050781-0.28125-0.0625l-0.125-0.015625c-0.3125-0.039063-0.53125-0.11328-0.65625-0.21875-0.125-0.10156-0.1875-0.26562-0.1875-0.48438 0-0.22656 0.078125-0.39844 0.23438-0.51562 0.16406-0.11328 0.41406-0.17188 0.75-0.17188 0.125 0 0.25391 0.011719 0.39062 0.03125 0.14453 0.023438 0.30078 0.054688 0.46875 0.09375z"/>
  </symbol>
  <symbol id="s" overflow="visible">
   <path d="m0.375-2.9219h0.95312l0.67188 1.5625 0.67188-1.5625h0.95312v2.9219h-0.71875v-2.1406l-0.67188 1.5781h-0.46875l-0.6875-1.5781v2.1406h-0.70312z"/>
  </symbol>
  <symbol id="i" overflow="visible">
   <path d="m0.3125-0.85938v-1.3438h0.70312v0.23438 0.4375 0.35938c0 0.17969 0.003906 0.30859 0.015625 0.39062 0.007812 0.074219 0.023438 0.125 0.046875 0.15625 0.03125 0.054688 0.066406 0.09375 0.10938 0.125 0.050781 0.023438 0.10156 0.03125 0.15625 0.03125 0.14453 0 0.25781-0.054688 0.34375-0.17188 0.082031-0.11328 0.125-0.26953 0.125-0.46875v-1.0938h0.70312v2.2031h-0.70312v-0.3125c-0.10547 0.125-0.21484 0.21875-0.32812 0.28125-0.11719 0.0625-0.24609 0.09375-0.39062 0.09375-0.25 0-0.44531-0.078125-0.57812-0.23438-0.13672-0.15625-0.20312-0.38281-0.20312-0.6875z"/>
  </symbol>
  <symbol id="h" overflow="visible">
   <path d="m0.34375-2.2031h0.70312v2.1562c0 0.30078-0.074219 0.52344-0.21875 0.67188-0.14844 0.15625-0.35156 0.23438-0.60938 0.23438h-0.35938v-0.45312h0.125c0.13281 0 0.22656-0.03125 0.28125-0.09375 0.050781-0.0625 0.078125-0.18359 0.078125-0.35938zm0-0.84375h0.70312v0.5625h-0.70312z"/>
  </symbol>
  <symbol id="r" overflow="visible">
   <path d="m1.7812-3.0469v0.45312h-0.39062c-0.09375 0-0.16406 0.023438-0.20312 0.0625-0.042969 0.03125-0.0625 0.09375-0.0625 0.1875v0.14062h0.60938v0.51562h-0.60938v1.6875h-0.70312v-1.6875h-0.34375v-0.51562h0.34375v-0.14062c0-0.23828 0.066406-0.41406 0.20312-0.53125 0.13281-0.11328 0.34375-0.17188 0.625-0.17188z"/>
  </symbol>
  <symbol id="e" overflow="visible">
   <path d="m1.375-1.75c-0.14844 0-0.26172 0.058594-0.34375 0.17188-0.085938 0.11719-0.125 0.27734-0.125 0.48438 0 0.21094 0.039062 0.37109 0.125 0.48438 0.082031 0.11719 0.19531 0.17188 0.34375 0.17188 0.15625 0 0.27344-0.054688 0.35938-0.17188 0.082031-0.11328 0.125-0.27344 0.125-0.48438 0-0.20703-0.042969-0.36719-0.125-0.48438-0.085937-0.11328-0.20312-0.17188-0.35938-0.17188zm0-0.5c0.38281 0 0.67969 0.10547 0.89062 0.3125 0.21875 0.19922 0.32812 0.48047 0.32812 0.84375 0 0.35547-0.10938 0.63672-0.32812 0.84375-0.21094 0.21094-0.50781 0.3125-0.89062 0.3125-0.375 0-0.67188-0.10156-0.89062-0.3125-0.21094-0.20703-0.3125-0.48828-0.3125-0.84375 0-0.36328 0.10156-0.64453 0.3125-0.84375 0.21875-0.20703 0.51562-0.3125 0.89062-0.3125z"/>
  </symbol>
  <symbol id="q" overflow="visible">
   <path d="m2.375-1.8281c0.082031-0.13281 0.1875-0.23828 0.3125-0.3125 0.125-0.070313 0.25781-0.10938 0.40625-0.10938 0.25 0 0.4375 0.078125 0.5625 0.23438 0.13281 0.15625 0.20312 0.38281 0.20312 0.67188v1.3438h-0.70312v-1.1406-0.046875c0.007812-0.019531 0.015625-0.050781 0.015625-0.09375 0-0.15625-0.027344-0.26562-0.078125-0.32812-0.042969-0.070313-0.11719-0.10938-0.21875-0.10938-0.13672 0-0.24219 0.058594-0.3125 0.17188-0.074219 0.10547-0.10938 0.26172-0.10938 0.46875v1.0781h-0.70312v-1.1406c0-0.25-0.023438-0.40625-0.0625-0.46875-0.042969-0.070313-0.12109-0.10938-0.23438-0.10938-0.125 0-0.22656 0.058594-0.29688 0.17188-0.074219 0.10547-0.10938 0.26172-0.10938 0.46875v1.0781h-0.71875v-2.2031h0.71875v0.32812c0.082031-0.125 0.17578-0.21875 0.28125-0.28125 0.11328-0.0625 0.23828-0.09375 0.375-0.09375 0.15625 0 0.28906 0.039062 0.40625 0.10938 0.11328 0.074219 0.20312 0.17969 0.26562 0.3125z"/>
  </symbol>
  <symbol id="p" overflow="visible">
   <path d="m0.375-2.9219h0.84375l1.0625 2v-2h0.70312v2.9219h-0.82812l-1.0781-2.0156v2.0156h-0.70312z"/>
  </symbol>
  <symbol id="o" overflow="visible">
   <path d="m2.5469-1.3438v1.3438h-0.70312v-1.0312c0-0.1875-0.007812-0.31641-0.015625-0.39062-0.011719-0.070313-0.027344-0.125-0.046875-0.15625-0.03125-0.039063-0.074219-0.070313-0.125-0.09375-0.042969-0.03125-0.089844-0.046875-0.14062-0.046875-0.14844 0-0.26172 0.058594-0.34375 0.17188-0.085937 0.11719-0.125 0.27344-0.125 0.46875v1.0781h-0.70312v-2.2031h0.70312v0.32812c0.10156-0.125 0.21094-0.21875 0.32812-0.28125 0.125-0.0625 0.25391-0.09375 0.39062-0.09375 0.25781 0 0.45312 0.078125 0.57812 0.23438 0.13281 0.15625 0.20312 0.38281 0.20312 0.67188z"/>
  </symbol>
  <symbol id="n" overflow="visible">
   <path d="m0.375-2.9219h1.25c0.375 0 0.66016 0.085937 0.85938 0.25 0.19531 0.15625 0.29688 0.39062 0.29688 0.70312 0 0.30469-0.10156 0.53906-0.29688 0.70312-0.19922 0.16797-0.48438 0.25-0.85938 0.25h-0.5v1.0156h-0.75zm0.75 0.54688v0.8125h0.42188c0.14453 0 0.25391-0.035156 0.32812-0.10938 0.082031-0.070313 0.125-0.17188 0.125-0.29688 0-0.13281-0.042969-0.23438-0.125-0.29688-0.074219-0.070313-0.18359-0.10938-0.32812-0.10938z"/>
  </symbol>
  <symbol id="m" overflow="visible">
   <path d="m2.1094-2.125v0.5625c-0.09375-0.0625-0.1875-0.10938-0.28125-0.14062s-0.19531-0.046875-0.29688-0.046875c-0.19922 0-0.35547 0.058594-0.46875 0.17188-0.10547 0.11719-0.15625 0.27734-0.15625 0.48438 0 0.21094 0.050781 0.37109 0.15625 0.48438 0.11328 0.11719 0.26953 0.17188 0.46875 0.17188 0.10156 0 0.20312-0.015625 0.29688-0.046875 0.10156-0.039063 0.19531-0.09375 0.28125-0.15625v0.57812c-0.10547 0.042969-0.21484 0.070312-0.32812 0.09375-0.11719 0.019531-0.23047 0.03125-0.34375 0.03125-0.39844 0-0.71094-0.097656-0.9375-0.29688-0.21875-0.20703-0.32812-0.49219-0.32812-0.85938 0-0.36328 0.10938-0.64453 0.32812-0.84375 0.22656-0.20703 0.53906-0.3125 0.9375-0.3125 0.11328 0 0.22266 0.011719 0.32812 0.03125 0.11328 0.023438 0.22656 0.054688 0.34375 0.09375z"/>
  </symbol>
 </defs>
 <g>
  <path d="m107.3 280 485.39-280v560zm12.035 0 466.93 268.77v-538.34z"/>
 
 </g>
</svg>
